<svg width="45" height="45" viewBox="0 0 45 45" fill="none" xmlns="http://www.w3.org/2000/svg">
<path d="M23.6862 0.000999451H3.06008C1.92093 0.000999451 0.997467 0.924463 0.997467 2.06361V36.4405C0.997467 37.5796 1.92093 38.5031 3.06008 38.5031H23.6862C24.8254 38.5031 25.7488 37.5796 25.7488 36.4405V2.06361C25.7488 0.924463 24.8254 0.000999451 23.6862 0.000999451Z" fill="#E53935"/>
<path d="M13.3738 19.9386C13.1914 19.9386 13.0165 19.8662 12.8876 19.7372C12.7587 19.6083 12.6862 19.4334 12.6862 19.251V6.18784C12.6862 6.00549 12.7587 5.83061 12.8876 5.70167C13.0165 5.57273 13.1914 5.5003 13.3738 5.5003C13.5561 5.5003 13.731 5.57273 13.8599 5.70167C13.9889 5.83061 14.0613 6.00549 14.0613 6.18784V19.251C14.0613 19.4334 13.9889 19.6083 13.8599 19.7372C13.731 19.8662 13.5561 19.9386 13.3738 19.9386Z" fill="#FF5252"/>
<path d="M23.6868 38.5021H3.06069C2.51383 38.5015 1.98954 38.284 1.60286 37.8973C1.21617 37.5106 0.998669 36.9864 0.998077 36.4395V36.1232L6.2439 31.6267H20.5035L25.7494 36.1232V36.4395C25.7488 36.9863 25.5313 37.5106 25.1446 37.8973C24.7579 38.284 24.2337 38.5015 23.6868 38.5021Z" fill="#FF5252"/>
<path d="M37.4362 19.982L25.5802 8.30888L32.9047 1.09782L44.7607 12.7708L37.4362 19.982Z" fill="#F9A825"/>
<path d="M40.1554 22.6589L28.2994 10.9859L32.9047 6.45177L44.7607 18.1248L40.1554 22.6589Z" fill="#FDD835"/>
<path d="M19.3098 44.1313C18.7691 44.133 18.2495 43.9215 17.8635 43.5428L4.41624 30.3024C4.2213 30.1105 4.06647 29.8817 3.96079 29.6294C3.85511 29.3771 3.80069 29.1063 3.80069 28.8328C3.80069 28.5592 3.85511 28.2884 3.96079 28.0361C4.06647 27.7838 4.2213 27.555 4.41624 27.3631L25.654 6.45177L42.0415 22.5864L20.7574 43.5425C20.3711 43.9216 19.851 44.1331 19.3098 44.1313Z" fill="#FF8A80"/>
<path d="M20.5029 6.87538H6.24329L0.997467 2.37888V2.06261C0.998036 1.51575 1.21553 0.991445 1.60222 0.604753C1.98891 0.218062 2.51322 0.000568762 3.06008 0L23.6862 0C24.2331 0.000591468 24.7574 0.218092 25.144 0.604779C25.5307 0.991465 25.7482 1.51576 25.7488 2.06261V2.37888L20.5029 6.87538Z" fill="#FF5252"/>
<path d="M18.8276 42.5626C18.9568 42.6885 19.13 42.759 19.3104 42.759C19.4908 42.759 19.664 42.6885 19.7932 42.5626L40.0809 22.5864L25.654 8.38142L5.38043 28.3429C5.31558 28.4069 5.2641 28.4832 5.22896 28.5673C5.19382 28.6514 5.17572 28.7416 5.17572 28.8327C5.17572 28.9239 5.19382 29.0141 5.22896 29.0982C5.2641 29.1823 5.31558 29.2586 5.38043 29.3226L18.8276 42.563V42.5626Z" fill="#FF5252"/>
<path d="M30.1809 32.3345C26.1906 33.8183 21.851 34.0904 17.7066 33.1164C13.5623 32.1424 9.79813 29.9659 6.88657 26.8599L5.38043 28.3429C5.31558 28.4069 5.2641 28.4832 5.22896 28.5673C5.19382 28.6514 5.17572 28.7416 5.17572 28.8327C5.17572 28.9239 5.19382 29.0141 5.22896 29.0982C5.2641 29.1823 5.31558 29.2586 5.38043 29.3226L18.8276 42.563C18.9568 42.6889 19.13 42.7593 19.3104 42.7593C19.4908 42.7593 19.664 42.6889 19.7932 42.563L30.1809 32.3345Z" fill="#E53935"/>
<path d="M39.5001 29.5641C38.6904 29.5619 37.8902 29.7389 37.157 30.0825C36.4238 30.4262 35.7758 30.9279 35.2595 31.5516C34.7432 32.1754 34.3714 32.9057 34.1708 33.6902C33.9702 34.4747 33.9457 35.2938 34.0992 36.0889C34.7025 35.2495 35.5993 34.6676 36.6117 34.4588C37.6241 34.25 38.678 34.4295 39.5641 34.9617C40.4503 35.494 41.1039 36.3399 41.3952 37.3317C41.6866 38.3235 41.5943 39.3886 41.1367 40.3155C42.3924 39.9241 43.4662 39.0956 44.1635 37.9804C44.8608 36.8652 45.1354 35.537 44.9374 34.2367C44.7395 32.9364 44.0822 31.7501 43.0846 30.8928C42.0871 30.0356 40.8154 29.5642 39.5001 29.5641Z" fill="#F9A825"/>
<path d="M37.4375 33.0018C36.3496 33.0018 35.2862 33.3244 34.3817 33.9288C33.4771 34.5332 32.7722 35.3922 32.3559 36.3972C31.9395 37.4023 31.8306 38.5082 32.0429 39.5752C32.2551 40.6421 32.7789 41.6222 33.5482 42.3914C34.3174 43.1607 35.2975 43.6845 36.3644 43.8967C37.4314 44.109 38.5373 44 39.5423 43.5837C40.5474 43.1674 41.4064 42.4624 42.0108 41.5579C42.6152 40.6534 42.9378 39.59 42.9378 38.5021C42.9359 37.0439 42.3558 35.646 41.3247 34.6149C40.2936 33.5838 38.8957 33.0037 37.4375 33.0018ZM38.125 39.1897H36.7499V37.8146H38.125V39.1897Z" fill="#FDD835"/>
<path d="M16.8114 29.1472C16.6291 29.1472 16.4542 29.0748 16.3253 28.9458C16.1963 28.8169 16.1239 28.642 16.1239 28.4597V23.1055C16.1239 22.9231 16.1963 22.7483 16.3253 22.6193C16.4542 22.4904 16.6291 22.4179 16.8114 22.4179C16.9938 22.4179 17.1687 22.4904 17.2976 22.6193C17.4265 22.7483 17.499 22.9231 17.499 23.1055V28.4597C17.499 28.642 17.4265 28.8169 17.2976 28.9458C17.1687 29.0748 16.9938 29.1472 16.8114 29.1472Z" fill="#FDD835"/>
<path d="M27.8121 29.1472C27.6297 29.1472 27.4548 29.0748 27.3259 28.9458C27.1969 28.8169 27.1245 28.642 27.1245 28.4597V23.1055C27.1245 22.9231 27.1969 22.7483 27.3259 22.6193C27.4548 22.4904 27.6297 22.4179 27.8121 22.4179C27.9944 22.4179 28.1693 22.4904 28.2982 22.6193C28.4271 22.7483 28.4996 22.9231 28.4996 23.1055V28.4597C28.4996 28.642 28.4271 28.8169 28.2982 28.9458C28.1693 29.0748 27.9944 29.1472 27.8121 29.1472Z" fill="#FDD835"/>
<path d="M25.0619 21.676H19.624C19.4416 21.676 19.2667 21.6036 19.1378 21.4746C19.0089 21.3457 18.9364 21.1708 18.9364 20.9885C18.9364 20.8061 19.0089 20.6312 19.1378 20.5023C19.2667 20.3734 19.4416 20.3009 19.624 20.3009H25.0619C25.2442 20.3009 25.4191 20.3734 25.548 20.5023C25.677 20.6312 25.7494 20.8061 25.7494 20.9885C25.7494 21.1708 25.677 21.3457 25.548 21.4746C25.4191 21.6036 25.2442 21.676 25.0619 21.676Z" fill="#FDD835"/>
<path d="M25.0619 31.3014H19.624C19.4416 31.3014 19.2667 31.229 19.1378 31.1001C19.0089 30.9711 18.9364 30.7962 18.9364 30.6139C18.9364 30.4316 19.0089 30.2567 19.1378 30.1277C19.2667 29.9988 19.4416 29.9264 19.624 29.9264H25.0619C25.2442 29.9264 25.4191 29.9988 25.548 30.1277C25.677 30.2567 25.7494 30.4316 25.7494 30.6139C25.7494 30.7962 25.677 30.9711 25.548 31.1001C25.4191 31.229 25.2442 31.3014 25.0619 31.3014Z" fill="#FDD835"/>
<path d="M27.812 21.5612C27.7215 21.562 27.6317 21.5449 27.5479 21.5106C27.4641 21.4764 27.388 21.4258 27.3239 21.3617C27.2599 21.2977 27.2093 21.2216 27.1751 21.1378C27.1408 21.054 27.1236 20.9642 27.1245 20.8736C27.1245 20.6913 27.1969 20.5164 27.3259 20.3875C27.4548 20.2585 27.6297 20.1861 27.812 20.1861C27.9944 20.1861 28.1693 20.2585 28.2982 20.3875C28.4271 20.5164 28.4996 20.6913 28.4996 20.8736C28.4982 21.0559 28.4268 21.2306 28.3002 21.3617C28.1684 21.4873 27.9941 21.5585 27.812 21.5612Z" fill="#FDD835"/>
<path d="M16.8114 31.379C16.7216 31.3781 16.6329 31.3595 16.5503 31.3243C16.4635 31.2928 16.3857 31.2409 16.3233 31.1729C16.1967 31.0446 16.1251 30.8719 16.1239 30.6916C16.125 30.6455 16.1295 30.5995 16.1373 30.5541C16.1451 30.511 16.1591 30.4693 16.1789 30.4302C16.1924 30.3858 16.2133 30.3438 16.2407 30.3063C16.2662 30.2704 16.2938 30.236 16.3233 30.2032C16.3894 30.1398 16.4662 30.0886 16.5503 30.0521C16.6764 30.0026 16.8143 29.9904 16.9471 30.0172C17.08 30.044 17.2024 30.1086 17.2995 30.2032C17.3271 30.2376 17.3547 30.2719 17.3821 30.3063C17.428 30.3836 17.4626 30.467 17.4848 30.5541C17.4932 30.5995 17.4979 30.6455 17.499 30.6916C17.4977 30.8735 17.4248 31.0477 17.2962 31.1763C17.1675 31.305 16.9934 31.3778 16.8114 31.3791V31.379Z" fill="#FDD835"/>
<path d="M27.8121 31.379C27.6301 31.3778 27.4559 31.3049 27.3273 31.1763C27.1986 31.0476 27.1258 30.8735 27.1245 30.6915C27.1245 30.5092 27.1969 30.3343 27.3259 30.2053C27.4548 30.0764 27.6297 30.004 27.8121 30.004C27.9944 30.004 28.1693 30.0764 28.2982 30.2053C28.4271 30.3343 28.4996 30.5092 28.4996 30.6915C28.4983 30.8735 28.4255 31.0476 28.2968 31.1763C28.1682 31.3049 27.994 31.3778 27.8121 31.379Z" fill="#FDD835"/>
<path d="M16.8114 21.5622C16.6288 21.5628 16.4533 21.4911 16.3233 21.3628C16.1955 21.2324 16.1239 21.0572 16.1239 20.8746C16.1239 20.6921 16.1955 20.5169 16.3233 20.3865C16.3879 20.3229 16.4652 20.2737 16.5503 20.2422C16.676 20.1928 16.8132 20.1802 16.9458 20.2057C17.0784 20.2313 17.2011 20.294 17.2995 20.3865C17.425 20.5184 17.4963 20.6927 17.499 20.8747C17.4975 21.0569 17.4261 21.2317 17.2995 21.3628C17.1695 21.491 16.9941 21.5626 16.8114 21.5622Z" fill="#FDD835"/>
<path d="M35.4092 36.4395L35.3748 40.5303L39.5 40.5647V36.4739L35.4092 36.4395ZM38.1249 39.1896H36.7499V37.8146H38.1249V39.1896Z" fill="#F9A825"/>
<path d="M25.7494 13.7508C26.5089 13.7508 27.1245 13.1352 27.1245 12.3758C27.1245 11.6163 26.5089 11.0007 25.7494 11.0007C24.99 11.0007 24.3744 11.6163 24.3744 12.3758C24.3744 13.1352 24.99 13.7508 25.7494 13.7508Z" fill="#FFD0CC"/>
<path d="M28.4995 15.1259C28.8792 15.1259 29.187 14.8181 29.187 14.4384C29.187 14.0587 28.8792 13.7508 28.4995 13.7508C28.1198 13.7508 27.812 14.0587 27.812 14.4384C27.812 14.8181 28.1198 15.1259 28.4995 15.1259Z" fill="#FFD0CC"/>
</svg>
