<svg width="20" height="20" viewBox="0 0 20 20" fill="none" xmlns="http://www.w3.org/2000/svg">
<path d="M15.1388 11.9831C14.5791 11.8627 14.1363 12.1226 13.7442 12.3496C13.3426 12.5835 12.5791 13.2029 12.1414 13.0443C9.90071 12.1218 7.79325 10.1605 6.88096 7.91079C6.72017 7.46379 7.33668 6.69541 7.56883 6.28912C7.79411 5.89583 8.04862 5.44884 7.93254 4.88489C7.82764 4.37812 6.47082 2.65163 5.99103 2.17951C5.67461 1.86766 5.35045 1.69613 5.0177 1.66841C3.76664 1.6147 2.3694 3.28402 2.12435 3.68337C1.51043 4.53492 1.51387 5.668 2.13467 7.04192C3.63078 10.7322 9.28936 16.3015 12.9935 17.8539C13.6771 18.1736 14.3022 18.3338 14.8637 18.3338C15.4131 18.3338 15.9024 18.1805 16.3228 17.8764C16.6401 17.6936 18.3778 16.227 18.3323 14.9423C18.3047 14.6149 18.1336 14.2874 17.8258 13.9704C17.3572 13.4861 15.6418 12.0888 15.1388 11.9831Z" fill="#FE2929"/>
</svg>
