<svg width="25" height="29" viewBox="0 0 25 29" fill="none" xmlns="http://www.w3.org/2000/svg">
<path d="M18.3208 0.666687C22.6111 0.666687 25 3.13891 25 7.37502V21.7222C25 26.0278 22.6111 28.4445 18.3208 28.4445H6.68056C2.45833 28.4445 0 26.0278 0 21.7222V7.37502C0 3.13891 2.45833 0.666687 6.68056 0.666687H18.3208ZM7.05556 19.75C6.63889 19.7084 6.23611 19.9028 6.01389 20.2639C5.79167 20.6111 5.79167 21.0695 6.01389 21.4306C6.23611 21.7778 6.63889 21.9861 7.05556 21.9306H17.9444C18.4986 21.875 18.9167 21.4014 18.9167 20.8472C18.9167 20.2778 18.4986 19.8056 17.9444 19.75H7.05556ZM17.9444 13.4153H7.05556C6.45694 13.4153 5.97222 13.9028 5.97222 14.5C5.97222 15.0972 6.45694 15.5834 7.05556 15.5834H17.9444C18.5417 15.5834 19.0278 15.0972 19.0278 14.5C19.0278 13.9028 18.5417 13.4153 17.9444 13.4153ZM11.2069 7.12502H7.05556V7.13891C6.45694 7.13891 5.97222 7.62502 5.97222 8.22224C5.97222 8.81946 6.45694 9.30557 7.05556 9.30557H11.2069C11.8056 9.30557 12.2917 8.81946 12.2917 8.20696C12.2917 7.61113 11.8056 7.12502 11.2069 7.12502Z" fill="#BDBDBD"/>
</svg>
