<svg width="24" height="26" viewBox="0 0 24 26" fill="none" xmlns="http://www.w3.org/2000/svg">
<path d="M8.39208 23.7248V19.8508C8.39206 18.8692 9.19032 18.0716 10.1791 18.0655H13.8096C14.8028 18.0655 15.6079 18.8648 15.6079 19.8508V23.7135C15.6079 24.565 16.2998 25.2569 17.1574 25.2632H19.6343C20.7911 25.2661 21.9016 24.812 22.7206 24.0009C23.5397 23.1898 24 22.0885 24 20.94V9.93581C24 9.00807 23.5858 8.12806 22.869 7.53284L14.4543 0.851707C12.9834 -0.316898 10.8826 -0.279148 9.45523 0.941538L1.22149 7.53284C0.47083 8.11051 0.0221713 8.99313 0 9.93581V20.9288C0 23.3226 1.95459 25.2632 4.36569 25.2632H6.78605C7.19895 25.2661 7.59598 25.1054 7.88902 24.8165C8.18205 24.5277 8.34685 24.1347 8.34684 23.7248H8.39208Z" fill="#FE2929"/>
</svg>
