<svg width="24" height="24" viewBox="0 0 24 24" fill="none" xmlns="http://www.w3.org/2000/svg">
<path fill-rule="evenodd" clip-rule="evenodd" d="M3.5 10.3178C3.5 5.71792 7.34388 2.00003 11.9934 2.00003C16.6561 2.00003 20.5 5.71792 20.5 10.3178C20.5 12.6357 19.657 14.7877 18.2695 16.6116C16.7388 18.6235 14.8522 20.3765 12.7285 21.7525C12.2425 22.0704 11.8039 22.0944 11.2704 21.7525C9.13474 20.3765 7.24809 18.6235 5.7305 16.6116C4.34198 14.7877 3.5 12.6357 3.5 10.3178ZM9.19423 10.5768C9.19423 12.1177 10.4517 13.3297 11.9934 13.3297C13.5362 13.3297 14.8058 12.1177 14.8058 10.5768C14.8058 9.04783 13.5362 7.77686 11.9934 7.77686C10.4517 7.77686 9.19423 9.04783 9.19423 10.5768Z" fill="#FE2929"/>
</svg>
