<svg width="20" height="18" viewBox="0 0 20 18" fill="none" xmlns="http://www.w3.org/2000/svg">
<path fill-rule="evenodd" clip-rule="evenodd" d="M14.5278 0.750031C15.757 0.750031 16.9395 1.23586 17.8095 2.10761C18.6803 2.97753 19.167 4.15086 19.167 5.3792V12.6209C19.167 15.1784 17.0862 17.25 14.5278 17.25H5.47204C2.91363 17.25 0.83371 15.1784 0.83371 12.6209V5.3792C0.83371 2.8217 2.90446 0.750031 5.47204 0.750031H14.5278ZM15.9862 6.74503L16.0595 6.6717C16.2786 6.40586 16.2786 6.02086 16.0495 5.75503C15.922 5.61845 15.747 5.53503 15.5645 5.5167C15.372 5.50661 15.1887 5.5717 15.0503 5.70003L10.917 9.00003C10.3854 9.44095 9.62363 9.44095 9.08371 9.00003L4.95871 5.70003C4.67363 5.4892 4.27946 5.5167 4.04204 5.7642C3.79454 6.0117 3.76704 6.40586 3.97696 6.68086L4.09704 6.80003L8.26788 10.0542C8.78121 10.4575 9.40363 10.6775 10.0554 10.6775C10.7053 10.6775 11.3387 10.4575 11.8511 10.0542L15.9862 6.74503Z" fill="#FE2929"/>
</svg>
