<svg width="23" height="23" viewBox="0 0 23 23" fill="none" xmlns="http://www.w3.org/2000/svg">
<path fill-rule="evenodd" clip-rule="evenodd" d="M11.1628 20.4652C6.02792 20.4652 1.86047 16.3071 1.86047 11.1629C1.86047 6.028 6.02792 1.86056 11.1628 1.86056C16.307 1.86056 20.4651 6.028 20.4651 11.1629C20.4651 16.3071 16.307 20.4652 11.1628 20.4652ZM14.1302 14.614C14.2419 14.6792 14.3628 14.7164 14.493 14.7164C14.7256 14.7164 14.9581 14.5954 15.0884 14.3722C15.2837 14.0466 15.1814 13.6187 14.8465 13.414L11.5349 11.442V7.14428C11.5349 6.75358 11.2186 6.4466 10.8372 6.4466C10.4558 6.4466 10.1395 6.75358 10.1395 7.14428V11.842C10.1395 12.0838 10.2698 12.3071 10.4837 12.4373L14.1302 14.614Z" fill="#FE2929"/>
</svg>
