<svg width="39" height="42" viewBox="0 0 39 42" fill="none" xmlns="http://www.w3.org/2000/svg">
<path d="M21.4648 42H3.38026C1.51339 42 0 40.4866 0 38.6197V3.38026C0 1.51339 1.51339 0 3.38026 0H21.4648C23.3317 0 24.8451 1.51339 24.8451 3.38026V38.6197C24.8451 40.4866 23.3317 42 21.4648 42Z" fill="#7B727B"/>
<path d="M21.4648 0H18.9296C20.7965 0 22.3099 1.51339 22.3099 3.38026V38.6197C22.3099 40.4866 20.7965 42 18.9296 42H21.4648C23.3317 42 24.8451 40.4866 24.8451 38.6197V3.38026C24.8451 1.51339 23.3317 0 21.4648 0V0Z" fill="#686169"/>
<path d="M22.6479 3.38026V38.6197C22.6479 39.2731 22.1183 39.8029 21.4648 39.8029H3.38028C2.7269 39.8029 2.19714 39.2732 2.19714 38.6197V3.38026C2.19714 2.72688 2.72682 2.19712 3.38028 2.19712H6.76932C6.96636 2.19712 7.14158 2.32214 7.20573 2.50843L7.6523 3.80584C7.71645 3.99213 7.89167 4.11714 8.08871 4.11714H16.7565C16.9535 4.11714 17.1287 3.99213 17.1929 3.80584L17.6394 2.50843C17.7036 2.32214 17.8788 2.19712 18.0759 2.19712H21.4649C22.1182 2.1972 22.6479 2.72688 22.6479 3.38026Z" fill="#D6FAEC"/>
<path d="M21.4648 2.1972H18.9296C19.583 2.1972 20.1128 2.72688 20.1128 3.38034V38.6198C20.1128 39.2732 19.5831 39.803 18.9296 39.803H21.4648C22.1182 39.803 22.6479 39.2733 22.6479 38.6198V3.38026C22.6479 2.72688 22.1182 2.1972 21.4648 2.1972Z" fill="#CCFAE8"/>
<path d="M15.7184 34.3522H9.12684C8.14673 34.3522 7.35217 33.5576 7.35217 32.5775C7.35217 31.5974 8.14673 30.8028 9.12684 30.8028H15.7184C16.6985 30.8028 17.493 31.5974 17.493 32.5775C17.493 33.5576 16.6985 34.3522 15.7184 34.3522Z" fill="#2FD9E7"/>
<path d="M36.5383 27H7.40538C6.48917 27 5.74646 26.2573 5.74646 25.3411V8.37719C5.74646 7.46099 6.48917 6.71828 7.40538 6.71828H36.5382C37.4544 6.71828 38.1971 7.46099 38.1971 8.37719V25.3411C38.1972 26.2573 37.4545 27 36.5383 27Z" fill="#2FD9E7"/>
<path d="M36.5383 6.71828H34.0031C34.9193 6.71828 35.662 7.46099 35.662 8.37719V25.3411C35.662 26.2573 34.9193 27 34.0031 27H36.5383C37.4545 27 38.1972 26.2573 38.1972 25.3411V8.37719C38.1972 7.46107 37.4545 6.71828 36.5383 6.71828Z" fill="#00D0E4"/>
<path d="M29.6454 19.0689C29.6434 19.0634 29.6411 19.0578 29.6389 19.0523C29.5265 18.7789 29.2631 18.6023 28.9674 18.6023H28.9671C28.6714 18.6024 28.4077 18.7793 28.2955 19.053C28.2936 19.0577 28.2916 19.0625 28.2898 19.0674L26.4545 23.8864C26.3335 24.2039 26.4929 24.5593 26.8105 24.6803C26.8825 24.7078 26.9565 24.7208 27.0293 24.7208C27.2772 24.7208 27.5109 24.5698 27.6044 24.3243L27.9105 23.5204H30.0101L30.3129 24.3226C30.4328 24.6405 30.7879 24.801 31.1057 24.6809C31.4236 24.561 31.5841 24.206 31.464 23.8881L29.6454 19.0689ZM28.3793 22.2899L28.9653 20.7514L29.5459 22.2899H28.3793Z" fill="#F8F7F7"/>
<path d="M35.1099 18.7143C34.8252 18.5288 34.444 18.6095 34.2586 18.8942L33.225 20.4821L32.1796 18.8811C31.9938 18.5965 31.6125 18.5166 31.3281 18.7023C31.0436 18.8881 30.9635 19.2692 31.1493 19.5538L32.6101 21.7909L32.6043 24.1037C32.6035 24.4436 32.8783 24.7197 33.218 24.7205H33.2196C33.5587 24.7205 33.834 24.4461 33.8348 24.1069L33.8405 21.7919L35.2898 19.5655C35.4752 19.2807 35.3946 18.8996 35.1099 18.7143Z" fill="#F8F7F7"/>
<path d="M24.8473 18.6032H23.4863C23.3228 18.6032 23.1661 18.6683 23.0506 18.7841C22.9352 18.8999 22.8705 19.0569 22.8711 19.2204V24.1063C22.8711 24.4461 23.1465 24.7215 23.4863 24.7215C23.8262 24.7215 24.1016 24.4461 24.1016 24.1063V22.5951C24.3742 22.5937 24.6738 22.5924 24.8473 22.5924C25.962 22.5924 26.869 21.6976 26.869 20.5978C26.869 19.498 25.962 18.6032 24.8473 18.6032ZM24.8473 21.3618C24.675 21.3618 24.3792 21.3631 24.1077 21.3644C24.1062 21.0836 24.105 20.7748 24.105 20.5976C24.105 20.4474 24.1042 20.1277 24.1034 19.8336H24.8472C25.2761 19.8336 25.6384 20.1835 25.6384 20.5976C25.6385 21.012 25.2762 21.3618 24.8473 21.3618Z" fill="#F8F7F7"/>
<path d="M15.2958 14.4085H10.0564C9.77636 14.4085 9.54938 14.1815 9.54938 13.9014V10.5212C9.54938 10.2411 9.77636 10.0141 10.0564 10.0141H15.2958C15.5759 10.0141 15.8029 10.2411 15.8029 10.5212V13.9014C15.8029 14.1815 15.5759 14.4085 15.2958 14.4085Z" fill="#FFE589"/>
<path d="M13.1831 23.8585H5.74646V19.4642H13.1831C14.3966 19.4642 15.3803 20.4479 15.3803 21.6614C15.3803 22.8748 14.3966 23.8585 13.1831 23.8585Z" fill="#FF6167"/>
<path d="M21.2454 10.9258C20.9056 10.9258 20.6302 11.2012 20.6302 11.5411V12.5551C20.6302 12.895 20.9056 13.1704 21.2454 13.1704C21.5853 13.1704 21.8607 12.895 21.8607 12.5551V11.5411C21.8607 11.2013 21.5852 10.9258 21.2454 10.9258Z" fill="#F8F7F7"/>
<path d="M31.699 10.9258C31.3592 10.9258 31.0838 11.2012 31.0838 11.5411V12.5551C31.0838 12.895 31.3592 13.1704 31.699 13.1704C32.0389 13.1704 32.3143 12.895 32.3143 12.5551V11.5411C32.3143 11.2013 32.0389 10.9258 31.699 10.9258Z" fill="#F8F7F7"/>
<path d="M33.9584 10.9258C33.6186 10.9258 33.3432 11.2012 33.3432 11.5411V12.5551C33.3432 12.895 33.6186 13.1704 33.9584 13.1704C34.2983 13.1704 34.5737 12.895 34.5737 12.5551V11.5411C34.5737 11.2013 34.2983 10.9258 33.9584 10.9258Z" fill="#F8F7F7"/>
<path d="M24.5259 10.9258C24.186 10.9258 23.9106 11.2012 23.9106 11.5411V12.5551C23.9106 12.895 24.186 13.1704 24.5259 13.1704C24.8657 13.1704 25.1411 12.895 25.1411 12.5551V11.5411C25.1411 11.2013 24.8657 10.9258 24.5259 10.9258Z" fill="#F8F7F7"/>
<path d="M26.9205 10.9258C26.5807 10.9258 26.3053 11.2012 26.3053 11.5411V12.5551C26.3053 12.895 26.5807 13.1704 26.9205 13.1704C27.2604 13.1704 27.5358 12.895 27.5358 12.5551V11.5411C27.5358 11.2013 27.2603 10.9258 26.9205 10.9258Z" fill="#F8F7F7"/>
</svg>
