<svg width="20" height="18" viewBox="0 0 20 18" fill="none" xmlns="http://www.w3.org/2000/svg">
<path fill-rule="evenodd" clip-rule="evenodd" d="M15.2882 5.68332H19.1667C19.1667 2.56921 17.3008 0.75 14.1393 0.75H5.86075C2.69927 0.75 0.833344 2.56921 0.833344 5.6436V12.3564C0.833344 15.4308 2.69927 17.25 5.86075 17.25H14.1393C17.3008 17.25 19.1667 15.4308 19.1667 12.3564V12.0704H15.2882C13.4881 12.0704 12.0289 10.6477 12.0289 8.89275C12.0289 7.13778 13.4881 5.71509 15.2882 5.71509V5.68332ZM15.2882 7.04971H18.4822C18.8602 7.04971 19.1667 7.34848 19.1667 7.71702V10.0367C19.1623 10.4035 18.8584 10.6997 18.4822 10.704H15.3615C14.4502 10.716 13.6534 10.1077 13.4467 9.2423C13.3432 8.7051 13.4885 8.15077 13.8437 7.72787C14.1988 7.30496 14.7276 7.05674 15.2882 7.04971ZM15.4267 9.48856H15.7282C16.1152 9.48856 16.4289 9.18269 16.4289 8.80537C16.4289 8.42805 16.1152 8.12217 15.7282 8.12217H15.4267C15.2416 8.12005 15.0633 8.19025 14.9317 8.31712C14.8 8.44398 14.7259 8.61695 14.7259 8.79742C14.7259 9.17605 15.0384 9.48421 15.4267 9.48856ZM5.17631 5.68332H10.3504C10.7374 5.68332 11.0511 5.37744 11.0511 5.00012C11.0511 4.6228 10.7374 4.31692 10.3504 4.31692H5.17631C4.79246 4.3169 4.48003 4.61796 4.47557 4.99218C4.47554 5.3708 4.78798 5.67897 5.17631 5.68332Z" fill="#FE2929"/>
</svg>
